<?xml version="1.0" encoding="UTF-8"?>
<!DOCTYPE svg PUBLIC "-//W3C//DTD SVG 1.1//EN" "http://www.w3.org/Graphics/SVG/1.1/DTD/svg11.dtd">
<!-- Creator: CorelDRAW -->
<svg xmlns="http://www.w3.org/2000/svg" xml:space="preserve" width="297mm" height="210mm" version="1.1" style="shape-rendering:geometricPrecision; text-rendering:geometricPrecision; image-rendering:optimizeQuality; fill-rule:evenodd; clip-rule:evenodd"
viewBox="0 0 29700 21000"
 xmlns:xlink="http://www.w3.org/1999/xlink"
 xmlns:xodm="http://www.corel.com/coreldraw/odm/2003">
 <defs>
  <style type="text/css">
   <![CDATA[
    .fil0 {fill:#FEFEFE}
    .fil1 {fill:#FEFEFE;fill-rule:nonzero}
   ]]>
  </style>
 </defs>
 <g id="Camada_x0020_1">
  <metadata id="CorelCorpID_0Corel-Layer"/>
  <g id="_1981802440544">
   <path class="fil0" d="M5728.92 10496.19l3214.12 0 -1871.78 1878.67 -486.85 -484.85 689.45 -702.82 -855.37 0 -689.57 -691 0 0zm-186.91 -2440.7l-2436.1 2444.13 2436.1 2437.97 342.6 -345.05 492.31 492.71 -834.91 830.8 -3415.58 -3424.46 3415.58 -3407.63 2561.02 2567.5 -979.72 0 -1581.31 -1595.98 0.01 0.01zm4582.79 3131.7l-2711.18 2725.39 -3415.98 -3422.71 1891.75 -1890.61 487.54 478.37 -1399.85 1413.66 2436.54 2439.12 1741.65 -1743.23 969.53 0 0 0.01zm-150.85 -1535.57l-979.15 0 -1581.18 -1596.14 -342.36 339.75 -486.85 -497.76 829.21 -811.52 2560.33 2565.66 0 0.01z"/>
   <path class="fil1" d="M12239.15 12611.36c-301.58,0 -412.18,-194.53 -412.18,-434.55 0,-280.02 141.32,-484.04 444.35,-484.04 66.53,0 135.66,10.62 198.54,25.44l-16.08 133.24c-65.12,-20.1 -129.41,-30.53 -194.67,-30.53 -187.93,0 -273.46,144.04 -273.46,331.78 0,209.49 89.41,328.1 285.67,328.1 61.06,0 139.71,-17.36 189.07,-41.28l17.36 129.23c-67.86,26.71 -152.11,42.61 -238.6,42.61z"/>
   <path class="fil1" d="M12993.49 12167.56c-13.35,-36.18 -27.02,-77.15 -36.18,-109.5l-1.09 0c-8.07,33.31 -21.74,72.04 -34.72,108.04l-74.92 195.95 218.77 0 -71.86 -194.49zm157.08 433.23l-49.22 -134.57 -289.36 0 -50.62 134.57 -144.37 0 263.02 -693.2 169.57 0 260.74 693.2 -159.76 0z"/>
   <path class="fil1" d="M13711.39 12014.08c-24.24,0 -42.75,0 -61.56,2.74l0 200c20.09,1.46 44.06,2.74 66.39,2.74 76.19,0 125.73,-44.07 125.73,-109.33 0,-62.7 -49.54,-96.15 -130.56,-96.15zm144.04 586.61l-198.68 -285.16 -6.92 0 0 285.16 -143.87 0 0 -693.19c50.5,-2.74 141.45,-3.83 226.66,-3.83 165.28,0 261.25,63.8 261.25,191.76 0,113.19 -78.79,181.5 -189.39,198.54 15.91,18.82 34.91,45.48 56.28,74.91l171.34 231.81 -176.67 0z"/>
   <polygon class="fil1" points="14493.22,12030.12 14493.22,12600.79 14349.17,12600.79 14349.17,12030.12 14157.1,12030.12 14157.1,11907.59 14685.34,11907.59 14685.34,12030.12 "/>
   <path class="fil1" d="M15170.01 12020.92c-105,0 -197.09,79.89 -197.09,229.07 -0.18,132.02 55.91,236.19 192.08,236.19 110.59,0 201.59,-74.78 201.59,-229.44 0,-154.48 -77.65,-235.82 -196.58,-235.82zm-13.04 591.9c-225.38,0 -337.25,-144 -337.25,-352.03 0,-227.98 167.83,-365.23 360.09,-365.23 201.09,0 341.12,117.34 341.12,351.88 0,229.4 -165.59,365.38 -363.96,365.38z"/>
   <path class="fil1" d="M16190.58 12600.79l-238.06 -375.86c-26.7,-41.51 -52.27,-90.86 -70.77,-132.15l-1.6 0c2.74,38.56 4.34,81.34 4.34,145.32l1.13 362.69 -140.03 0 0 -693.2 192.25 0 233.14 369.24c26.84,42.61 53.18,87.96 75.87,135.85l1.46 0c-2.74,-43.88 -3.55,-110.6 -3.55,-199.82l-1.92 -305.27 139.99 0 0 693.2 -192.25 0z"/>
   <path class="fil1" d="M16957.18 12167.56c-13.35,-36.18 -26.7,-77.15 -36.04,-109.5l-1.28 0c-8.34,33.31 -21.37,72.04 -34.73,108.04l-74.73 195.95 218.64 0 -71.86 -194.49zm157.35 433.23l-49.35 -134.57 -289.5 0 -50.63 134.57 -144.04 0 262.84 -693.2 169.11 0 261.56 693.2 -159.99 0z"/>
   <path class="fil1" d="M17765.98 12611.36c-208.02,0 -358.81,-117.34 -358.63,-344 0,-207.89 143.86,-370.57 385.47,-370.57 73.14,0 144.86,10.75 217.18,31.99l-25.7 125.4c-60.92,-24.1 -123.81,-37.32 -190.34,-37.32 -129.23,0 -233.08,81.35 -233.08,238.6 0,148.06 89.03,229.4 218.13,229.4 36.51,0 72.18,-5.47 101.58,-13.54l-0.14 -233.22 144.18 0 0 326.64c-80.06,30.72 -164.14,46.62 -258.65,46.62z"/>
   <polygon class="fil1" points="18301.46,12600.79 18301.46,11907.59 18709.48,11907.59 18709.48,12020.92 18445.51,12020.92 18445.51,12190.02 18697.22,12190.02 18697.22,12299.35 18445.51,12299.35 18445.51,12486.14 18709.48,12486.14 18709.48,12600.79 "/>
   <path class="fil1" d="M19693.18 12600.79l-52.27 -362.69c-9.29,-66.57 -14.76,-119.94 -18.96,-158.67l-1.13 0c-8.02,38.73 -20.1,84.08 -34.55,129.42l-130.87 391.94 -151.74 0 -118.67 -363.96c-16.36,-49.36 -33.4,-109.33 -42.55,-156.12l-1.46 0c-2.74,52.09 -9.35,104.16 -17.37,165.28l-45.34 354.8 -143.86 0 106.59 -693.2 179.86 0 129.41 389.16c13.49,42.79 26.53,88.13 34.54,130.74l1.46 0c10.62,-48.08 21.06,-82.67 36,-126.68l133.29 -393.22 185.33 0 104.03 693.2 -151.74 0z"/>
   <polygon class="fil1" points="20445.16,12600.79 20445.3,11907.59 20853.14,11907.59 20853.14,12020.92 20589.21,12020.92 20589.21,12190.02 20841.57,12190.02 20841.57,12299.35 20589.21,12299.35 20589.21,12486.14 20853.14,12486.14 20853.14,12600.79 "/>
   <path class="fil1" d="M21836.88 12600.79l-51.95 -362.69c-9.29,-66.57 -14.63,-119.94 -18.63,-158.67l-1.46 0c-8.03,38.73 -19.92,84.08 -34.54,129.42l-130.7 391.94 -151.93 0 -118.47 -363.96c-16.22,-49.36 -33.27,-109.33 -42.75,-156.12l-1.64 0c-2.55,52.09 -8.97,104.16 -17.04,165.28l-45.48 354.8 -144.18 0 106.91 -693.2 179.85 0 129.42 389.16c13.36,42.79 26.7,88.13 34.54,130.74l1.14 0c11.12,-48.08 21.69,-82.67 36.32,-126.68l133.29 -393.22 185.33 0 103.85 693.2 -151.88 0z"/>
   <path class="fil1" d="M23249.3 11862.11c-74.92,-29.26 -157.4,-46.75 -239.7,-46.75 -181.32,0 -326.82,117.34 -326.82,340.17 0,207.84 118.34,329.37 312.06,329.37 51.58,0 97.06,-8.01 138.39,-21.37l0 -326.68 145.5 0 0 422.65c-89.54,34.73 -198.86,54.64 -301.26,54.64 -278.92,0 -450.95,-166.69 -450.95,-443.84 0,-278.75 186.47,-481.44 494.52,-481.44 86.94,0 172.16,13.3 250.76,38.73l-22.5 134.52z"/>
   <polygon class="fil1" points="23548.82,12600.79 23548.82,11907.59 23956.52,11907.59 23956.52,12020.92 23692.87,12020.92 23692.87,12190.02 23944.45,12190.02 23944.45,12299.35 23692.87,12299.35 23692.87,12486.14 23956.52,12486.14 23956.52,12600.79 "/>
   <path class="fil1" d="M24418.55 12014.08c-23.6,0 -42.42,0 -61.25,2.74l0 200c20.1,1.46 44.39,2.74 67.04,2.74 75.87,0 125.08,-44.07 125.08,-109.33 0,-62.7 -49.21,-96.15 -130.87,-96.15zm144.23 586.61l-198.73 -285.16 -6.75 0 0 285.16 -143.85 0 0 -693.19c50.48,-2.74 141.44,-3.83 226.84,-3.83 165.23,0 261.07,63.8 261.07,191.76 0,113.32 -78.48,181.5 -189.08,198.72 16.1,18.64 34.41,45.3 55.97,74.73l171.65 231.81 -177.12 0z"/>
   <path class="fil1" d="M25242.3 12167.56c-13.35,-36.18 -26.84,-77.15 -36.18,-109.5l-0.96 0c-8.06,33.44 -21.37,72.04 -34.72,108.04l-74.59 195.95 218.45 0 -72 -194.49zm157.35 433.23l-49.35 -134.57 -289.18 0 -50.63 134.57 -144.22 0 262.7 -693.2 169.56 0 261.12 693.2 -160 0z"/>
   <polygon class="fil1" points="25755.17,12600.79 25755.17,11907.59 25899.22,11907.59 25899.22,12475.38 26137.77,12475.38 26137.77,12600.79 "/>
   <path class="fil1" d="M10479.78 10412.25l0 -3.83c0.14,-403.19 316.38,-719.58 745.42,-719.58 242.61,0 415.09,75.24 561.23,201.77l-225.57 270.74c-98.7,-82.99 -197.73,-130.56 -334.2,-130.56 -199.32,0 -353.53,168.15 -353.53,379.54l0 4.01c0,223.29 156.12,383.42 375.54,383.42 92.77,0 164.13,-19.78 221.37,-57.23l0 -167.97 -272.5 0 0 -280.84 636.14 0 0 622.75c-145.96,120.57 -349.97,213.48 -600.92,213.48 -430.67,0 -752.98,-296.6 -752.98,-715.7z"/>
   <path class="fil1" d="M12684.09 10380.71c130.37,0 205.42,-63.2 205.42,-163.96l0 -3.87c0,-109 -79.1,-163.96 -207.52,-163.96l-250.81 0 0 331.79 252.91 0zm-636.47 -663.94l654.28 0c211.58,0 357.67,55.14 450.45,150.15 81.03,78.93 122.67,185.7 122.67,322.18l0 3.82c0,211.58 -112.37,351.93 -284.71,425.07l330.38 482.26 -443.07 0 -278.61 -419.1 -167.83 0 0 419.1 -383.56 0 0 -1383.48z"/>
   <path class="fil1" d="M14172.82 9281.68l357.67 108.87 -292.6 211.53 -278.74 0 213.67 -320.4zm85.03 1272.88l-154.16 -393.21 -156.43 393.21 310.59 0zm-336.16 -847.67l369.61 0 589.16 1393.27 -411.08 0 -101.11 -247.07 -533.39 0 -98.84 247.07 -403.06 0 588.71 -1393.27z"/>
   <polygon class="fil1" points="15015.35,9716.72 16122.18,9716.72 16122.18,10052.53 15398.95,10052.53 15398.95,10287.7 16053.05,10287.7 16053.05,10606.01 15398.95,10606.01 15398.95,11100.2 15015.35,11100.2 "/>
   <polygon class="fil1" points="16304.36,9716.68 16689.87,9716.68 16689.87,11100.15 16304.36,11100.15 "/>
   <path class="fil1" d="M16895.61 10412.25l0 -3.83c0,-403.19 310.43,-719.58 729.71,-719.58 282.43,0 464.25,118.66 586.74,288.72l-288.4 223.48c-78.93,-99.03 -170.07,-162.23 -302.67,-162.23 -193.58,0 -329.88,164.14 -329.88,365.74l0 3.87c0,207.52 136.3,369.56 329.88,369.56 144.18,0 229.39,-67.21 312.65,-167.96l288.4 205.6c-130.55,179.87 -306.4,312.33 -612.81,312.33 -395.45,0 -713.62,-302.53 -713.62,-715.7z"/>
   <path class="fil1" d="M19189.1 10554.78l-154.53 -393.53 -155.89 393.53 310.42 0zm-335.98 -847.99l369.38 0 589.02 1393.46 -411.03 0 -100.8 -247.08 -533.7 0 -98.71 247.08 -403.19 0 589.03 -1393.46z"/>
   <path class="fil1" d="M20446.71 10412.25l0 -3.83c0,-403.19 310.42,-719.58 729.2,-719.58 282.94,0 464.94,118.8 587.11,288.72l-288.41 223.48c-79.24,-99.03 -169.92,-162.23 -302.53,-162.23 -193.58,0 -329.88,164.14 -329.88,365.74l0 3.87c0,207.52 136.3,369.56 329.88,369.56 144.32,0 229.39,-67.21 312.15,-167.96l288.59 205.74c-130.38,179.73 -306.27,312.19 -612.5,312.19 -395.45,0 -713.61,-302.53 -713.61,-715.7z"/>
   <path class="fil1" d="M22740.01 10554.78l-154.16 -393.53 -156.07 393.53 310.23 0zm-336.12 -847.99l369.75 0 588.85 1393.46 -411.4 0 -100.62 -247.08 -533.38 0 -99.21 247.08 -403.01 0 589.02 -1393.46z"/>
   <path class="fil1" d="M24133.79 10380.71c130.69,0 205.29,-63.2 205.29,-163.96l0 -3.87c0,-109 -78.92,-163.96 -207.2,-163.96l-250.95 0 0 331.79 252.86 0zm-636.47 -663.94l654.29 0c211.57,0 357.71,55.14 450.45,150.15 81.2,78.93 122.67,185.7 122.67,322.18l0 3.82c0,211.58 -112.69,351.93 -284.54,425.07l329.88 482.26 -442.57 0 -278.74 -419.1 -167.83 0 0 419.1 -383.42 0 -0.19 -1383.48z"/>
   <polygon class="fil1" points="24918.9,9716.72 25302.64,9716.72 25302.64,10764.21 25972.49,10764.21 25972.49,11100.2 24918.9,11100.2 "/>
   <path class="fil1" d="M26951.4 10554.78l-154.47 -393.53 -155.94 393.53 310.41 0zm-336.3 -847.99l369.43 0 589.03 1393.46 -410.76 0 -100.93 -247.08 -533.71 0 -98.88 247.08 -403.2 0 589.02 -1393.46z"/>
  </g>
 </g>
</svg>
